<svg version="1.1" viewBox="0.0 0.0 500.0 700.0" fill="none" stroke="none" stroke-linecap="square" stroke-miterlimit="10" xmlns:xlink="http://www.w3.org/1999/xlink" xmlns="http://www.w3.org/2000/svg"><clipPath id="p.0"><path d="m0 0l500.0 0l0 700.0l-500.0 0l0 -700.0z" clip-rule="nonzero"/></clipPath><g clip-path="url(#p.0)"><path fill="#000000" fill-opacity="0.0" d="m0 0l500.0 0l0 700.0l-500.0 0z" fill-rule="evenodd"/><path fill="#1d9bf0" d="m0 83.335l0 0c0 -46.02465 37.31035 -83.335 83.335 -83.335l333.33002 0l0 0c22.101807 0 43.2984 8.779912 58.926727 24.408257c15.628357 15.6283455 24.408264 36.82493 24.408264 58.926743l0 533.32996c0 46.02466 -37.310364 83.33502 -83.33499 83.33502l-333.33002 0c-46.02465 0 -83.335 -37.310364 -83.335 -83.33502z" fill-rule="evenodd"/><path fill="#ffffff" d="m203.90826 42.917946l0 0c0 -14.574432 11.814911 -26.389347 26.389343 -26.389347l0 0c6.9989014 0 13.711136 2.7803001 18.660095 7.7292614c4.9489594 4.948963 7.729248 11.661196 7.729248 18.660086l0 0c0 14.574436 -11.814911 26.38935 -26.389343 26.38935l0 0c-14.574432 0 -26.389343 -11.814915 -26.389343 -26.38935z" fill-rule="evenodd"/><path fill="#ffffff" d="m243.3144 42.917946l0 0c0 -14.574432 11.814911 -26.389347 26.389359 -26.389347l0 0c6.998871 0 13.711121 2.7803001 18.660065 7.7292614c4.9489746 4.948963 7.7292786 11.661196 7.7292786 18.660086l0 0c0 14.574436 -11.814911 26.38935 -26.389343 26.38935l0 0c-14.574448 0 -26.389359 -11.814915 -26.389359 -26.38935z" fill-rule="evenodd"/></g></svg>