<svg version="1.1" viewBox="0.0 0.0 256.0 256.0" fill="none" stroke="none" stroke-linecap="square" stroke-miterlimit="10" xmlns:xlink="http://www.w3.org/1999/xlink" xmlns="http://www.w3.org/2000/svg"><clipPath id="p.0"><path d="m0 0l256.0 0l0 256.0l-256.0 0l0 -256.0z" clip-rule="nonzero"/></clipPath><g clip-path="url(#p.0)"><path fill="#000000" fill-opacity="0.0" d="m0 0l256.0 0l0 256.0l-256.0 0z" fill-rule="evenodd"/><path fill="#ffffff" d="m58.273186 72.23959l0 0c-5.4843826 -35.709892 19.018234 -69.10445 54.728134 -74.58883l0 0c17.14849 -2.6336925 34.64086 1.6526976 48.628975 11.916214c13.988129 10.2635145 23.326157 25.663422 25.959854 42.811916l0 0c5.484375 35.709896 -19.018234 69.10445 -54.728134 74.58884l0 0c-35.709892 5.484375 -69.10445 -19.018242 -74.58883 -54.728134z" fill-rule="evenodd"/><path fill="#ffffff" d="m154.82507 57.411007l0 0c-5.484375 -35.709892 19.01825 -69.104454 54.728134 -74.58884l0 0c17.148499 -2.6336918 34.64087 1.6526985 48.628983 11.916214c13.988129 10.263515 23.326172 25.663424 25.959839 42.81192l0 0c5.4844055 35.709892 -19.018219 69.10445 -54.72812 74.58883l0 0c-35.7099 5.4843826 -69.10445 -19.018234 -74.58884 -54.72813z" fill-rule="evenodd"/></g></svg>