<svg version="1.1" viewBox="0.0 0.0 256.0 256.0" fill="none" stroke="none" stroke-linecap="square" stroke-miterlimit="10" xmlns:xlink="http://www.w3.org/1999/xlink" xmlns="http://www.w3.org/2000/svg"><clipPath id="p.0"><path d="m0 0l256.0 0l0 256.0l-256.0 0l0 -256.0z" clip-rule="nonzero"/></clipPath><g clip-path="url(#p.0)"><path fill="#000000" fill-opacity="0.0" d="m0 0l256.0 0l0 256.0l-256.0 0z" fill-rule="evenodd"/><path fill="#c22047" d="m13.738845 128.0l0 0c0 -36.12899 29.288334 -65.41733 65.41732 -65.41733l0 0c17.349754 0 33.988907 6.8921623 46.257034 19.16029c12.268135 12.268127 19.160286 28.90728 19.160286 46.257034l0 0c0 36.128983 -29.28833 65.41733 -65.41732 65.41733l0 0c-36.128986 0 -65.41732 -29.288345 -65.41732 -65.41733z" fill-rule="evenodd"/><path fill="#c22047" d="m111.42388 128.0l0 0c0 -36.12899 29.288338 -65.41733 65.41732 -65.41733l0 0c17.349762 0 33.988907 6.8921623 46.257034 19.16029c12.268127 12.268127 19.160294 28.90728 19.160294 46.257034l0 0c0 36.128983 -29.28833 65.41733 -65.41733 65.41733l0 0c-36.128983 0 -65.41732 -29.288345 -65.41732 -65.41733z" fill-rule="evenodd"/></g></svg>