<svg version="1.1" viewBox="0.0 0.0 720.0 256.0" fill="none" stroke="none" stroke-linecap="square" stroke-miterlimit="10" xmlns:xlink="http://www.w3.org/1999/xlink" xmlns="http://www.w3.org/2000/svg"><clipPath id="p.0"><path d="m0 0l720.0 0l0 256.0l-720.0 0l0 -256.0z" clip-rule="nonzero"/></clipPath><g clip-path="url(#p.0)"><path fill="#000000" fill-opacity="0.0" d="m0 0l720.0 0l0 256.0l-720.0 0z" fill-rule="evenodd"/><path fill="#000000" fill-opacity="0.0" d="m71.40157 43.165356l577.1969 0l0 169.66928l-577.1969 0z" fill-rule="evenodd"/><path fill="#5e5e5e" d="m126.323235 82.689735l20.703133 60.843758l0.25 0l19.546875 -60.609383l0.125 -0.234375l27.3125 0l0 88.51563l-18.234375 0l0 -62.734383l-0.234375 0l-21.6875 62.734383l-15.015625 0l-21.734383 -62.125008l-0.234375 0l0 62.125008l-18.234375 0l0 -88.51563l27.4375 0zm114.3711 22.703125q15.078125 0 24.15625 9.296875q9.078125 9.28125 9.078125 24.546883q0 15.3125 -9.171875 24.515625q-9.171875 9.203125 -24.0625 9.203125q-14.890625 0 -24.015625 -9.25q-9.109375 -9.265625 -9.109375 -24.46875q0 -15.203133 8.953125 -24.515633q8.96875 -9.328125 24.171875 -9.328125zm-15.5 33.843758q0 10.109375 4.140625 15.296875q4.15625 5.171875 11.359375 5.171875q7.5 0 11.5625 -5.359375q4.0625 -5.359375 4.0625 -15.109375q0 -9.5625 -3.9375 -15.078133q-3.9375 -5.515625 -11.8125 -5.515625q-7.078125 0 -11.234375 5.125q-4.140625 5.1093826 -4.140625 15.468758zm78.228516 -56.546883l0 88.51563l-17.625 0l0 -88.51563l17.625 0zm43.46875 22.703125q14.234375 0 22.734375 9.78125q8.515625 9.765625 8.515625 24.968758l-0.125 3.265625l-46.265625 0q0.375 8.296875 4.328125 12.296875q3.96875 4.0 11.359375 4.0q4.78125 0 8.828125 -2.453125q4.0625 -2.453125 5.15625 -5.90625l15.5 0q-3.578125 10.890625 -11.03125 16.25q-7.4375 5.359375 -19.0 5.359375q-14.828125 0 -23.796875 -9.375q-8.953125 -9.390625 -8.953125 -24.34375q0 -14.343758 9.171875 -24.093758q9.171875 -9.75 23.578125 -9.75zm-15.140625 26.875008l28.640625 0q-1.265625 -7.0781326 -4.578125 -10.343758q-3.296875 -3.28125 -9.53125 -3.28125q-6.40625 0 -10.171875 3.640625q-3.75 3.625 -4.359375 9.984383zm87.4375 -26.875008q12.40625 0 20.90625 6.421875q8.515625 6.40625 9.25 17.859383l-17.265625 0q-0.78125 -5.5156326 -4.0625 -8.265633q-3.265625 -2.765625 -8.953125 -2.765625q-7.078125 0 -11.015625 5.8125q-3.9375 5.8125076 -3.9375 15.015633q0 9.203125 3.875 14.71875q3.875 5.515625 10.71875 5.515625q5.875 0 9.5 -3.359375q3.640625 -3.359375 4.546875 -9.71875l16.953125 0q-1.765625 12.703125 -9.9375 19.515625q-8.171875 6.8125 -20.9375 6.8125q-14.296875 0 -23.328125 -9.171875q-9.015625 -9.171875 -9.015625 -23.703125q0 -15.562508 8.875 -25.125008q8.875 -9.5625 23.828125 -9.5625zm58.0625 1.6875l0 36.750008q0 7.265625 2.53125 11.234375q2.546875 3.96875 8.796875 3.96875q7.265625 0 10.4375 -4.390625q3.171875 -4.390625 3.171875 -13.34375l0 -34.218758l17.625 0l0 64.12501l-16.765625 0l0 -8.90625l-0.375 0q-3.328125 5.328125 -8.59375 8.0q-5.265625 2.65625 -11.078125 2.65625q-11.921875 0 -17.625 -6.078125q-5.6875 -6.09375 -5.6875 -19.65625l0 -40.140633l17.5625 0zm74.05078 -24.390625l0 88.51563l-17.625 0l0 -88.51563l17.625 0zm43.46869 22.703125q14.234375 0 22.734375 9.78125q8.515625 9.765625 8.515625 24.968758l-0.125 3.265625l-46.265564 0q0.375 8.296875 4.328064 12.296875q3.96875 4.0 11.359375 4.0q4.78125 0 8.828125 -2.453125q4.0625 -2.453125 5.15625 -5.90625l15.5 0q-3.578125 10.890625 -11.03125 16.25q-7.4375 5.359375 -19.0 5.359375q-14.828064 0 -23.796814 -9.375q-8.953125 -9.390625 -8.953125 -24.34375q0 -14.343758 9.171875 -24.093758q9.171875 -9.75 23.578064 -9.75zm-15.140564 26.875008l28.640564 0q-1.265625 -7.0781326 -4.578125 -10.343758q-3.296875 -3.28125 -9.53125 -3.28125q-6.40625 0 -10.171875 3.640625q-3.749939 3.625 -4.359314 9.984383z" fill-rule="nonzero"/></g></svg>