<svg version="1.1" viewBox="0.0 0.0 2160.0 340.0" fill="none" stroke="none" stroke-linecap="square" stroke-miterlimit="10" xmlns:xlink="http://www.w3.org/1999/xlink" xmlns="http://www.w3.org/2000/svg"><clipPath id="p.0"><path d="m0 0l2160.0 0l0 340.0l-2160.0 0l0 -340.0z" clip-rule="nonzero"/></clipPath><g clip-path="url(#p.0)"><path fill="#000000" fill-opacity="0.0" d="m0 0l2160.0 0l0 340.0l-2160.0 0z" fill-rule="evenodd"/><path fill="#000000" fill-opacity="0.0" d="m457.02362 0.33070865l1702.9922 0l0 339.33856l-1702.9922 0z" fill-rule="evenodd"/><path fill="#5e5e5e" d="m588.3224 80.36385l41.40625 121.70312l0.484375 0l39.109375 -121.21874l0.25 -0.484375l54.609375 0l0 177.04688l-36.453125 0l0 -125.45314l-0.484375 0l-43.34375 125.45314l-30.03125 0l-43.46875 -124.250015l-0.484375 0l0 124.250015l-36.453125 0l0 -177.04688l54.859375 0zm228.74219 45.421875q30.15625 0 48.3125 18.593742q18.171875 18.578125 18.171875 49.09375q0 30.640625 -18.359375 49.046875q-18.34375 18.406265 -48.125 18.406265q-29.796875 0 -48.015625 -18.531265q-18.21875 -18.53125 -18.21875 -48.921875q0 -30.390625 17.921875 -49.03125q17.921875 -18.656242 48.3125 -18.656242zm-31.0 67.68749q0 20.21875 8.296875 30.578125q8.296875 10.34375 22.703125 10.34375q15.015625 0 23.125 -10.703125q8.109375 -10.71875 8.109375 -30.21875q0 -19.140625 -7.875 -30.15625q-7.859375 -11.015625 -23.609375 -11.015625q-14.15625 0 -22.453125 10.234375q-8.296875 10.234375 -8.296875 30.9375zm156.45703 -113.10937l0 177.04688l-35.25 0l0 -177.04688l35.25 0zm86.9375 45.421875q28.453125 0 45.46875 19.562492q17.015625 19.546875 17.015625 49.9375l-0.234375 6.546875l-92.515625 0q0.71875 16.578125 8.640625 24.578125q7.9375 7.984375 22.71875 7.984375q9.5625 0 17.671875 -4.890625q8.125 -4.90625 10.296875 -11.8125l31.0 0q-7.140625 21.796875 -22.046875 32.515625q-14.890625 10.718765 -38.015625 10.718765q-29.671875 0 -47.59375 -18.76564q-17.921875 -18.78125 -17.921875 -48.6875q0 -28.703125 18.34375 -48.1875q18.359375 -19.499992 47.171875 -19.499992zm-30.265625 53.765617l57.265625 0q-2.53125 -14.171875 -9.140625 -20.703125q-6.59375 -6.546875 -19.0625 -6.546875q-12.84375 0 -20.359375 7.265625q-7.5 7.265625 -8.703125 19.984375zm174.85938 -53.765617q24.8125 0 41.828125 12.843742q17.015625 12.828125 18.46875 35.703125l-34.515625 0q-1.5625 -11.015625 -8.109375 -16.515625q-6.53125 -5.515625 -17.921875 -5.515625q-14.171875 0 -22.046875 11.625q-7.859375 11.625 -7.859375 30.03125q0 18.40625 7.75 29.421875q7.75 11.015625 21.4375 11.015625q11.734375 0 19.0 -6.71875q7.265625 -6.71875 9.09375 -19.4375l33.90625 0q-3.515625 25.4375 -19.875 39.0625q-16.34375 13.625015 -41.890625 13.625015q-28.578125 0 -46.625 -18.343765q-18.03125 -18.359375 -18.03125 -47.421875q0 -31.109375 17.734375 -50.234375q17.734375 -19.140617 47.65625 -19.140617zm116.125 3.3906174l0 73.5q0 14.53125 5.078125 22.46875q5.09375 7.921875 17.5625 7.921875q14.53125 0 20.890625 -8.78125q6.359375 -8.78125 6.359375 -26.703125l0 -68.40625l35.234375 0l0 128.23439l-33.546875 0l0 -17.79689l-0.71875 0q-6.65625 10.65625 -17.203125 15.984375q-10.53125 5.3281403 -22.15625 5.3281403q-23.859375 0 -35.25 -12.17189q-11.375 -12.171875 -11.375 -39.296875l0 -80.28125l35.125 0zm148.10156 -48.812492l0 177.04688l-35.25 0l0 -177.04688l35.25 0zm86.93762 45.421875q28.453125 0 45.46875 19.562492q17.015625 19.546875 17.015625 49.9375l-0.234375 6.546875l-92.515625 0q0.71875 16.578125 8.640625 24.578125q7.9375 7.984375 22.71875 7.984375q9.5625 0 17.671875 -4.890625q8.125 -4.90625 10.296875 -11.8125l31.0 0q-7.140625 21.796875 -22.046875 32.515625q-14.890625 10.718765 -38.015625 10.718765q-29.671875 0 -47.593872 -18.76564q-17.921875 -18.78125 -17.921875 -48.6875q0 -28.703125 18.34375 -48.1875q18.359497 -19.499992 47.171997 -19.499992zm-30.265625 53.765617l57.265625 0q-2.53125 -14.171875 -9.140625 -20.703125q-6.59375 -6.546875 -19.0625 -6.546875q-12.84375 0 -20.359375 7.265625q-7.5 7.265625 -8.703125 19.984375zm196.53125 -103.42187q30.15625 0 51.40625 17.015625q21.25 17.015625 24.875 46.687492l-37.65625 0q-2.546875 -13.937492 -13.8125 -22.468742q-11.25 -8.53125 -24.9375 -8.53125q-22.765625 0 -35.421875 16.65625q-12.65625 16.640617 -12.65625 44.124992q0 26.28125 12.53125 42.75q12.546875 16.46875 35.671875 16.46875q16.828125 0 27.234375 -10.34375q10.421875 -10.359375 12.84375 -29.25l37.78125 0q-3.390625 33.78125 -24.53125 53.09375q-21.125 19.312515 -53.328125 19.312515q-25.546875 0 -45.46875 -11.687515q-19.921875 -11.6875 -30.765625 -33.0q-10.828125 -21.3125 -10.828125 -47.34375q0 -40.8125 23.84375 -67.14062q23.859375 -26.34375 63.21875 -26.34375zm165.41406 0q32.09375 0 51.46875 14.90625q19.375 14.890625 19.375 42.124992l-37.671875 0q-0.84375 -13.312492 -9.078125 -20.031242q-8.234375 -6.71875 -25.671875 -6.71875q-11.859375 0 -19.4375 5.203125q-7.5625 5.203125 -7.5625 14.890625q0 6.6562424 3.140625 9.937492q3.15625 3.265625 12.90625 6.84375q9.75 3.5625 42.5625 11.3125q22.03125 5.328125 34.375 18.046875q12.359375 12.71875 12.359375 32.203125q0 25.671875 -19.25 41.234375q-19.25 15.562515 -54.25 15.562515q-33.421875 0 -54.5 -16.468765q-21.0625 -16.46875 -21.0625 -45.53125l0 -0.96875l37.65625 0q0.25 16.46875 11.015625 24.59375q10.78125 8.109375 28.21875 8.109375q15.75 0 25.125 -5.75q9.390625 -5.765625 9.390625 -16.296875q0 -8.59375 -7.203125 -14.09375q-7.203125 -5.515625 -23.0625 -9.515625q-20.34375 -4.609375 -36.9375 -9.75q-16.59375 -5.140625 -27.4375 -16.703125q-10.828125 -11.578125 -10.828125 -29.609375q0 -23.859367 19.0625 -38.687492q19.078125 -14.84375 47.296875 -14.84375zm160.9336 0q32.09375 0 51.46875 14.90625q19.375 14.890625 19.375 42.124992l-37.671875 0q-0.84375 -13.312492 -9.078125 -20.031242q-8.234375 -6.71875 -25.671875 -6.71875q-11.859375 0 -19.4375 5.203125q-7.5625 5.203125 -7.5625 14.890625q0 6.6562424 3.140625 9.937492q3.15625 3.265625 12.90625 6.84375q9.75 3.5625 42.5625 11.3125q22.03125 5.328125 34.375 18.046875q12.359375 12.71875 12.359375 32.203125q0 25.671875 -19.25 41.234375q-19.25 15.562515 -54.25 15.562515q-33.421875 0 -54.5 -16.468765q-21.0625 -16.46875 -21.0625 -45.53125l0 -0.96875l37.65625 0q0.25 16.46875 11.015625 24.59375q10.78125 8.109375 28.21875 8.109375q15.75 0 25.125 -5.75q9.390625 -5.765625 9.390625 -16.296875q0 -8.59375 -7.203125 -14.09375q-7.203125 -5.515625 -23.0625 -9.515625q-20.34375 -4.609375 -36.9375 -9.75q-16.59375 -5.140625 -27.4375 -16.703125q-10.828125 -11.578125 -10.828125 -29.609375q0 -23.859367 19.0625 -38.687492q19.078125 -14.84375 47.296875 -14.84375z" fill-rule="nonzero"/><path fill="#c22047" d="m-0.018372703 170.0l0 0c0 -72.25798 58.576664 -130.83464 130.83464 -130.83464l0 0c34.69951 0 67.97781 13.784325 92.51407 38.320576c24.536255 24.536263 38.32057 57.81456 38.32057 92.51407l0 0c0 72.25798 -58.57666 130.83466 -130.83464 130.83466l0 0c-72.25798 0 -130.83464 -58.576675 -130.83464 -130.83466z" fill-rule="evenodd"/><path fill="#c22047" d="m195.3517 170.0l0 0c0 -72.25798 58.576675 -130.83464 130.83464 -130.83464l0 0c34.699524 0 67.97781 13.784325 92.51407 38.320576c24.536255 24.536263 38.320587 57.81456 38.320587 92.51407l0 0c0 72.25798 -58.57666 130.83466 -130.83466 130.83466l0 0c-72.257965 0 -130.83464 -58.576675 -130.83464 -130.83466z" fill-rule="evenodd"/></g></svg>