<svg version="1.1" viewBox="0.0 0.0 1340.0 420.0" fill="none" stroke="none" stroke-linecap="square" stroke-miterlimit="10" xmlns:xlink="http://www.w3.org/1999/xlink" xmlns="http://www.w3.org/2000/svg"><clipPath id="p.0"><path d="m0 0l1340.0 0l0 420.0l-1340.0 0l0 -420.0z" clip-rule="nonzero"/></clipPath><g clip-path="url(#p.0)"><path fill="#000000" fill-opacity="0.0" d="m0 0l1340.0 0l0 420.0l-1340.0 0z" fill-rule="evenodd"/><path fill="#000000" fill-opacity="0.0" d="m358.5118 187.58923l851.4961 0l0 169.66931l-851.4961 0z" fill-rule="evenodd"/><path fill="#5e5e5e" d="m424.1612 227.11362l20.703125 60.84375l0.25 0l19.546875 -60.609375l0.125 -0.234375l27.3125 0l0 88.515625l-18.234375 0l0 -62.734375l-0.234375 0l-21.6875 62.734375l-15.015625 0l-21.734375 -62.125l-0.234375 0l0 62.125l-18.234375 0l0 -88.515625l27.4375 0zm114.37109 22.703125q15.078125 0 24.15625 9.296875q9.078125 9.28125 9.078125 24.546875q0 15.3125 -9.171875 24.515625q-9.171875 9.203125 -24.0625 9.203125q-14.890625 0 -24.015625 -9.25q-9.109375 -9.265625 -9.109375 -24.46875q0 -15.203125 8.953125 -24.515625q8.96875 -9.328125 24.171875 -9.328125zm-15.5 33.84375q0 10.109375 4.140625 15.296875q4.15625 5.171875 11.359375 5.171875q7.5 0 11.5625 -5.359375q4.0625 -5.359375 4.0625 -15.109375q0 -9.5625 -3.9375 -15.078125q-3.9375 -5.515625 -11.8125 -5.515625q-7.078125 0 -11.234375 5.125q-4.140625 5.109375 -4.140625 15.46875zm78.228516 -56.546875l0 88.515625l-17.625 0l0 -88.515625l17.625 0zm43.46875 22.703125q14.234375 0 22.734375 9.78125q8.515625 9.765625 8.515625 24.96875l-0.125 3.265625l-46.265625 0q0.375 8.296875 4.328125 12.296875q3.96875 4.0 11.359375 4.0q4.78125 0 8.828125 -2.453125q4.0625 -2.453125 5.15625 -5.90625l15.5 0q-3.578125 10.890625 -11.03125 16.25q-7.4375 5.359375 -19.0 5.359375q-14.828125 0 -23.796875 -9.375q-8.953125 -9.390625 -8.953125 -24.34375q0 -14.34375 9.171875 -24.09375q9.171875 -9.75 23.578125 -9.75zm-15.140625 26.875l28.640625 0q-1.265625 -7.078125 -4.578125 -10.34375q-3.296875 -3.28125 -9.53125 -3.28125q-6.40625 0 -10.171875 3.640625q-3.75 3.625 -4.359375 9.984375zm87.4375 -26.875q12.40625 0 20.90625 6.421875q8.515625 6.40625 9.25 17.859375l-17.265625 0q-0.78125 -5.515625 -4.0625 -8.265625q-3.265625 -2.765625 -8.953125 -2.765625q-7.078125 0 -11.015625 5.8125q-3.9375 5.8125 -3.9375 15.015625q0 9.203125 3.875 14.71875q3.875 5.515625 10.71875 5.515625q5.875 0 9.5 -3.359375q3.640625 -3.359375 4.546875 -9.71875l16.953125 0q-1.765625 12.703125 -9.9375 19.515625q-8.171875 6.8125 -20.9375 6.8125q-14.296875 0 -23.328125 -9.171875q-9.015625 -9.171875 -9.015625 -23.703125q0 -15.5625 8.875 -25.125q8.875 -9.5625 23.828125 -9.5625zm58.0625 1.6875l0 36.75q0 7.265625 2.53125 11.234375q2.546875 3.96875 8.796875 3.96875q7.265625 0 10.4375 -4.390625q3.171875 -4.390625 3.171875 -13.34375l0 -34.21875l17.625 0l0 64.125l-16.765625 0l0 -8.90625l-0.375 0q-3.328125 5.328125 -8.59375 8.0q-5.265625 2.65625 -11.078125 2.65625q-11.921875 0 -17.625 -6.078125q-5.6875 -6.09375 -5.6875 -19.65625l0 -40.140625l17.5625 0zm74.05078 -24.390625l0 88.515625l-17.625 0l0 -88.515625l17.625 0zm43.46881 22.703125q14.234375 0 22.734375 9.78125q8.515625 9.765625 8.515625 24.96875l-0.125 3.265625l-46.265625 0q0.375 8.296875 4.328125 12.296875q3.96875 4.0 11.359375 4.0q4.78125 0 8.828125 -2.453125q4.0625 -2.453125 5.15625 -5.90625l15.5 0q-3.578125 10.890625 -11.03125 16.25q-7.4375 5.359375 -19.0 5.359375q-14.828125 0 -23.796936 -9.375q-8.953125 -9.390625 -8.953125 -24.34375q0 -14.34375 9.171875 -24.09375q9.171936 -9.75 23.578186 -9.75zm-15.140625 26.875l28.640625 0q-1.265625 -7.078125 -4.578125 -10.34375q-3.296875 -3.28125 -9.53125 -3.28125q-6.40625 0 -10.171875 3.640625q-3.75 3.625 -4.359375 9.984375zm98.265625 -51.703125q15.078125 0 25.703125 8.515625q10.625 8.5 12.453125 23.328125l-18.828125 0q-1.28125 -6.953125 -6.921875 -11.21875q-5.625 -4.28125 -12.453125 -4.28125q-11.390625 0 -17.71875 8.328125q-6.328125 8.328125 -6.328125 22.078125q0 13.125 6.265625 21.359375q6.265625 8.234375 17.828125 8.234375q8.421875 0 13.625 -5.171875q5.21875 -5.171875 6.421875 -14.625l18.890625 0q-1.6875 16.890625 -12.265625 26.5625q-10.5625 9.65625 -26.671875 9.65625q-12.765625 0 -22.734375 -5.84375q-9.953125 -5.84375 -15.375 -16.5q-5.421875 -10.65625 -5.421875 -23.671875q0 -20.40625 11.921875 -33.578125q11.9375 -13.171875 31.609375 -13.171875zm82.70703 0q16.046875 0 25.734375 7.453125q9.6875 7.4375 9.6875 21.0625l-18.828125 0q-0.421875 -6.65625 -4.546875 -10.015625q-4.109375 -3.359375 -12.828125 -3.359375q-5.9375 0 -9.71875 2.609375q-3.78125 2.59375 -3.78125 7.4375q0 3.328125 1.5625 4.96875q1.578125 1.625 6.453125 3.421875q4.875 1.78125 21.28125 5.65625q11.03125 2.671875 17.203125 9.03125q6.171875 6.34375 6.171875 16.09375q0 12.84375 -9.625 20.625q-9.625 7.78125 -27.125 7.78125q-16.703125 0 -27.25 -8.234375q-10.53125 -8.234375 -10.53125 -22.765625l0 -0.484375l18.828125 0q0.125 8.234375 5.515625 12.296875q5.390625 4.046875 14.109375 4.046875q7.859375 0 12.546875 -2.875q4.703125 -2.875 4.703125 -8.140625q0 -4.3125 -3.609375 -7.0625q-3.59375 -2.75 -11.53125 -4.75q-10.171875 -2.296875 -18.46875 -4.875q-8.28125 -2.578125 -13.703125 -8.359375q-5.421875 -5.78125 -5.421875 -14.796875q0 -11.9375 9.53125 -19.34375q9.546875 -7.421875 23.640625 -7.421875zm80.4668 0q16.046875 0 25.734375 7.453125q9.6875 7.4375 9.6875 21.0625l-18.828125 0q-0.421875 -6.65625 -4.546875 -10.015625q-4.109375 -3.359375 -12.828125 -3.359375q-5.9375 0 -9.71875 2.609375q-3.78125 2.59375 -3.78125 7.4375q0 3.328125 1.5625 4.96875q1.578125 1.625 6.453125 3.421875q4.875 1.78125 21.28125 5.65625q11.03125 2.671875 17.203125 9.03125q6.171875 6.34375 6.171875 16.09375q0 12.84375 -9.625 20.625q-9.625 7.78125 -27.125 7.78125q-16.703125 0 -27.25 -8.234375q-10.53125 -8.234375 -10.53125 -22.765625l0 -0.484375l18.828125 0q0.125 8.234375 5.515625 12.296875q5.390625 4.046875 14.109375 4.046875q7.859375 0 12.546875 -2.875q4.703125 -2.875 4.703125 -8.140625q0 -4.3125 -3.609375 -7.0625q-3.59375 -2.75 -11.53125 -4.75q-10.171875 -2.296875 -18.46875 -4.875q-8.28125 -2.578125 -13.703125 -8.359375q-5.421875 -5.78125 -5.421875 -14.796875q0 -11.9375 9.53125 -19.34375q9.546875 -7.421875 23.640625 -7.421875z" fill-rule="nonzero"/><path fill="#c22047" d="m129.99081 272.4239l0 0c0 -36.128998 29.28833 -65.41733 65.41733 -65.41733l0 0c17.349747 0 33.98889 6.892166 46.257034 19.160294c12.268127 12.268127 19.160294 28.907272 19.160294 46.257034l0 0c0 36.128998 -29.288345 65.41733 -65.41733 65.41733l0 0c-36.128998 0 -65.41733 -29.28833 -65.41733 -65.41733z" fill-rule="evenodd"/><path fill="#c22047" d="m227.67586 272.4239l0 0c0 -36.128998 29.288315 -65.41733 65.41731 -65.41733l0 0c17.349762 0 33.988922 6.892166 46.25705 19.160294c12.268127 12.268127 19.160278 28.907272 19.160278 46.257034l0 0c0 36.128998 -29.28833 65.41733 -65.41733 65.41733l0 0c-36.128998 0 -65.41731 -29.28833 -65.41731 -65.41733z" fill-rule="evenodd"/><path fill="#000000" fill-opacity="0.0" d="m207.74953 140.30858l36.472443 115.14961" fill-rule="evenodd"/><path stroke="#c22047" stroke-width="3.0" stroke-linejoin="round" stroke-linecap="butt" d="m207.74953 140.30858l36.472443 115.14961" fill-rule="evenodd"/><path fill="#000000" fill-opacity="0.0" d="m711.1732 256.3504l75.811035 -116.03151" fill-rule="evenodd"/><path stroke="#5e5e5e" stroke-width="3.0" stroke-linejoin="round" stroke-linecap="butt" d="m711.1732 256.3504l75.811035 -116.03151" fill-rule="evenodd"/><path fill="#000000" fill-opacity="0.0" d="m72.9895 62.74147l315.3386 0l0 77.5748l-315.3386 0z" fill-rule="evenodd"/><path fill="#5e5e5e" d="m150.60411 84.36834l-1.390625 9.828125l5.9375 0l1.375 -9.65625l0.046875 -0.171875l3.28125 0l-1.375 9.828125l4.265625 0l0 3.28125l-4.71875 0l-1.0 7.1875l4.375 0l0 3.265625l-4.84375 0l-1.40625 9.859375l-3.3125 0l1.40625 -9.859375l-5.953125 0l-1.40625 9.859375l-3.296875 0l1.375 -9.859375l-4.640625 0l0 -3.265625l5.140625 0l1.0 -7.1875l-4.890625 0l0 -3.28125l5.3125 0l1.390625 -9.65625l0.046875 -0.171875l3.28125 0zm-2.84375 20.296875l5.953125 0l1.015625 -7.1875l-5.953125 0l-1.015625 7.1875zm30.054688 -12.234375q4.546875 0 7.375 2.15625q2.84375 2.15625 3.328125 6.375l-4.21875 0q-0.484375 -2.40625 -2.09375 -3.671875q-1.609375 -1.265625 -4.046875 -1.265625q-3.796875 0 -5.765625 2.546875q-1.96875 2.53125 -1.96875 7.15625q0 4.125 1.9375 6.59375q1.953125 2.46875 5.3125 2.46875q2.96875 0 4.6875 -1.59375q1.734375 -1.609375 2.125 -4.453125l4.171875 0q-0.671875 4.640625 -3.484375 7.15625q-2.8125 2.515625 -7.453125 2.515625q-5.421875 0 -8.515625 -3.40625q-3.09375 -3.421875 -3.09375 -9.28125q0 -6.09375 3.125 -9.6875q3.140625 -3.609375 8.578125 -3.609375zm25.40625 -8.640625q4.703125 0 7.671875 2.65625q2.984375 2.65625 2.984375 7.140625q0 3.515625 -1.96875 6.359375q-1.96875 2.828125 -8.34375 6.5q-3.890625 2.25 -5.515625 4.03125q-1.625 1.78125 -1.984375 3.734375l17.46875 0l0 3.609375l-22.21875 0q0.34375 -4.25 2.1875 -7.4375q1.84375 -3.1875 6.875 -6.1875q5.953125 -3.625 7.5625 -5.6875q1.609375 -2.0625 1.609375 -4.953125q0 -2.671875 -1.875 -4.40625q-1.875 -1.75 -4.6875 -1.75q-3.078125 0 -4.859375 2.28125q-1.78125 2.28125 -1.78125 5.828125l0 0.328125l-4.078125 0l-0.015625 -0.84375q0 -5.0625 3.0 -8.125q3.0 -3.078125 7.96875 -3.078125zm26.695312 0q4.703125 0 7.671875 2.65625q2.984375 2.65625 2.984375 7.140625q0 3.515625 -1.96875 6.359375q-1.96875 2.828125 -8.34375 6.5q-3.890625 2.25 -5.515625 4.03125q-1.625 1.78125 -1.984375 3.734375l17.46875 0l0 3.609375l-22.21875 0q0.34375 -4.25 2.1875 -7.4375q1.84375 -3.1875 6.875 -6.1875q5.953125 -3.625 7.5625 -5.6875q1.609375 -2.0625 1.609375 -4.953125q0 -2.671875 -1.875 -4.40625q-1.875 -1.75 -4.6875 -1.75q-3.078125 0 -4.859375 2.28125q-1.78125 2.28125 -1.78125 5.828125l0 0.328125l-4.078125 0l-0.015625 -0.84375q0 -5.0625 3.0 -8.125q3.0 -3.078125 7.96875 -3.078125zm26.976547 0q2.859375 0 4.953125 0.921875q2.09375 0.921875 3.546875 2.828125q2.84375 3.671875 2.84375 13.5625q0 4.96875 -0.703125 8.3125q-0.6875 3.34375 -2.140625 5.234375q-1.40625 1.828125 -3.53125 2.796875q-2.109375 0.96875 -4.96875 0.96875q-5.6718597 0 -8.48436 -3.8125q-2.84375 -3.796875 -2.84375 -13.5q0 -9.765625 2.84375 -13.515625q2.859375 -3.796875 8.48436 -3.796875zm-7.0156097 17.265625q0 4.078125 0.453125 6.765625q0.46875 2.6875 1.328125 4.140625q1.8125 2.828125 5.2343597 2.828125q3.796875 0 5.4375 -3.25q0.8125 -1.671875 1.1875 -4.21875q0.375 -2.5625 0.375 -6.125q0 -1.1875 -0.03125 -2.65625q-0.015625 -1.484375 -0.203125 -3.0q-0.1875 -1.53125 -0.59375 -2.984375q-0.40625 -1.453125 -1.1875 -2.578125q-0.796875 -1.15625 -2.0 -1.859375q-1.203125 -0.71875 -3.03125 -0.71875q-1.6249847 0 -2.9218597 0.6875q-1.28125 0.671875 -2.21875 2.078125q-1.828125 2.78125 -1.828125 10.890625zm40.476547 -17.265625l0 22.453125l4.625 0l0 3.609375l-4.625 0l0 7.96875l-3.84375 0l0 -7.96875l-14.921875 0l0 -3.9375l15.515625 -22.125l3.25 0zm-3.9375 5.8125l-11.3125 16.640625l11.40625 0l0 -16.640625l-0.09375 0zm34.945312 -5.234375l0 3.5q-5.21875 5.25 -8.859375 13.546875q-3.625 8.296875 -4.1875 16.40625l-4.546875 0q0.5625 -7.953125 3.96875 -15.546875q3.40625 -7.59375 9.453125 -14.078125l-17.859375 0l0 -3.828125l22.03125 0z" fill-rule="nonzero"/><path fill="#000000" fill-opacity="0.0" d="m510.10236 62.74147l699.9056 0l0 77.5748l-699.9056 0z" fill-rule="evenodd"/><path fill="#5e5e5e" d="m548.88324 84.36834l-1.390625 9.828125l5.9375 0l1.375 -9.65625l0.046875 -0.171875l3.28125 0l-1.375 9.828125l4.265625 0l0 3.28125l-4.71875 0l-1.0 7.1875l4.375 0l0 3.265625l-4.84375 0l-1.40625 9.859375l-3.3125 0l1.40625 -9.859375l-5.953125 0l-1.40625 9.859375l-3.296875 0l1.375 -9.859375l-4.640625 0l0 -3.265625l5.140625 0l1.0 -7.1875l-4.890625 0l0 -3.28125l5.3125 0l1.390625 -9.65625l0.046875 -0.171875l3.28125 0zm-2.84375 20.296875l5.953125 0l1.015625 -7.1875l-5.953125 0l-1.015625 7.1875zm39.195312 -20.296875l0 3.59375l-13.734375 0l-1.828125 9.796875l0.09375 0.09375q1.078125 -1.171875 2.703125 -1.796875q1.625 -0.640625 3.640625 -0.640625q4.953125 0 7.953125 3.09375q3.015625 3.09375 3.015625 8.53125q0 4.890625 -3.28125 8.140625q-3.28125 3.234375 -8.59375 3.234375q-4.546875 0 -7.640625 -2.625q-3.078125 -2.640625 -3.21875 -7.09375l0 -0.046875l4.078125 0q0.1875 2.71875 2.1875 4.4375q2.015625 1.703125 4.96875 1.703125q3.140625 0 5.15625 -2.15625q2.03125 -2.15625 2.03125 -5.90625q0 -3.46875 -2.21875 -5.59375q-2.203125 -2.140625 -5.46875 -2.140625q-1.796875 0 -3.390625 0.8125q-1.578125 0.8125 -2.9375 2.40625l-3.484375 -0.1875l3.15625 -17.65625l16.8125 0zm17.507812 8.0625q5.34375 0 8.296875 3.84375q2.953125 3.84375 2.953125 9.875l0 0.484375l-18.59375 0l0 0.3125q0 3.53125 2.0625 5.6875q2.0625 2.15625 5.671875 2.15625q2.71875 0 4.328125 -1.265625q1.609375 -1.265625 2.09375 -3.578125l4.03125 0q-0.8125 4.125 -3.609375 6.296875q-2.78125 2.171875 -6.984375 2.171875q-3.90625 0 -6.625 -1.765625q-2.703125 -1.78125 -4.0 -4.9375q-1.28125 -3.15625 -1.28125 -6.453125q0 -5.484375 3.296875 -9.15625q3.3125 -3.671875 8.359375 -3.671875zm-7.34375 10.59375l14.25 0q-0.1875 -3.015625 -2.1875 -5.0q-2.0 -2.0 -5.0 -2.0q-2.8125 0 -4.8125 1.90625q-1.984375 1.890625 -2.25 5.09375zm42.3125 -18.65625l0 3.59375l-13.734375 0l-1.828125 9.796875l0.09375 0.09375q1.078125 -1.171875 2.703125 -1.796875q1.625 -0.640625 3.640625 -0.640625q4.953125 0 7.953125 3.09375q3.015625 3.09375 3.015625 8.53125q0 4.890625 -3.28125 8.140625q-3.28125 3.234375 -8.59375 3.234375q-4.546875 0 -7.640625 -2.625q-3.078125 -2.640625 -3.21875 -7.09375l0 -0.046875l4.078125 0q0.1875 2.71875 2.1875 4.4375q2.015625 1.703125 4.96875 1.703125q3.140625 0 5.15625 -2.15625q2.03125 -2.15625 2.03125 -5.90625q0 -3.46875 -2.21875 -5.59375q-2.203125 -2.140625 -5.46875 -2.140625q-1.796875 0 -3.390625 0.8125q-1.578125 0.8125 -2.9375 2.40625l-3.484375 -0.1875l3.15625 -17.65625l16.8125 0zm17.507812 8.0625q5.34375 0 8.296875 3.84375q2.953125 3.84375 2.953125 9.875l0 0.484375l-18.59375 0l0 0.3125q0 3.53125 2.0625 5.6875q2.0625 2.15625 5.671875 2.15625q2.71875 0 4.328125 -1.265625q1.609375 -1.265625 2.09375 -3.578125l4.03125 0q-0.8125 4.125 -3.609375 6.296875q-2.78125 2.171875 -6.984375 2.171875q-3.90625 0 -6.625 -1.765625q-2.703125 -1.78125 -4.0 -4.9375q-1.28125 -3.15625 -1.28125 -6.453125q0 -5.484375 3.296875 -9.15625q3.3125 -3.671875 8.359375 -3.671875zm-7.34375 10.59375l14.25 0q-0.1875 -3.015625 -2.1875 -5.0q-2.0 -2.0 -5.0 -2.0q-2.8125 0 -4.8125 1.90625q-1.984375 1.890625 -2.25 5.09375zm42.3125 -18.65625l0 3.59375l-13.734375 0l-1.828125 9.796875l0.09375 0.09375q1.078125 -1.171875 2.703125 -1.796875q1.625 -0.640625 3.640625 -0.640625q4.953125 0 7.953125 3.09375q3.015625 3.09375 3.015625 8.53125q0 4.890625 -3.28125 8.140625q-3.28125 3.234375 -8.59375 3.234375q-4.546875 0 -7.640625 -2.625q-3.078125 -2.640625 -3.21875 -7.09375l0 -0.046875l4.078125 0q0.1875 2.71875 2.1875 4.4375q2.015625 1.703125 4.96875 1.703125q3.140625 0 5.15625 -2.15625q2.03125 -2.15625 2.03125 -5.90625q0 -3.46875 -2.21875 -5.59375q-2.203125 -2.140625 -5.46875 -2.140625q-1.796875 0 -3.390625 0.8125q-1.578125 0.8125 -2.9375 2.40625l-3.484375 -0.1875l3.15625 -17.65625l16.8125 0zm17.507812 8.0625q5.34375 0 8.296875 3.84375q2.953125 3.84375 2.953125 9.875l0 0.484375l-18.59375 0l0 0.3125q0 3.53125 2.0625 5.6875q2.0625 2.15625 5.671875 2.15625q2.71875 0 4.328125 -1.265625q1.609375 -1.265625 2.09375 -3.578125l4.03125 0q-0.8125 4.125 -3.609375 6.296875q-2.78125 2.171875 -6.984375 2.171875q-3.90625 0 -6.625 -1.765625q-2.703125 -1.78125 -4.0 -4.9375q-1.28125 -3.15625 -1.28125 -6.453125q0 -5.484375 3.296875 -9.15625q3.3125 -3.671875 8.359375 -3.671875zm-7.34375 10.59375l14.25 0q-0.1875 -3.015625 -2.1875 -5.0q-2.0 -2.0 -5.0 -2.0q-2.8125 0 -4.8125 1.90625q-1.984375 1.890625 -2.25 5.09375zm29.046875 9.46875l0 5.109375q0 2.65625 -1.3125 4.546875q-1.296875 1.90625 -3.96875 2.734375l0 -2.390625q1.25 -0.453125 2.015625 -1.625q0.78125 -1.171875 0.78125 -2.78125l0 -0.265625l-2.84375 0l0 -5.328125l5.328125 0zm25.65625 -28.9375l0 14.71875l18.046875 0l0 -14.71875l4.578125 0l0 34.265625l-4.578125 0l0 -15.703125l-18.046875 0l0 15.703125l-4.546875 0l0 -34.265625l4.546875 0zm39.757812 8.875q5.34375 0 8.296875 3.84375q2.953125 3.84375 2.953125 9.875l0 0.484375l-18.59375 0l0 0.3125q0 3.53125 2.0625 5.6875q2.0625 2.15625 5.671875 2.15625q2.71875 0 4.328125 -1.265625q1.609375 -1.265625 2.09375 -3.578125l4.03125 0q-0.8125 4.125 -3.609375 6.296875q-2.78125 2.171875 -6.984375 2.171875q-3.90625 0 -6.625 -1.765625q-2.703125 -1.78125 -4.0 -4.9375q-1.28125 -3.15625 -1.28125 -6.453125q0 -5.484375 3.296875 -9.15625q3.3125 -3.671875 8.359375 -3.671875zm-7.34375 10.59375l14.25 0q-0.1875 -3.015625 -2.1875 -5.0q-2.0 -2.0 -5.0 -2.0q-2.8125 0 -4.8125 1.90625q-1.984375 1.890625 -2.25 5.09375zm27.125 -19.46875l0 34.265625l-4.078125 0l0 -34.265625l4.078125 0zm8.5078125 9.4375l6.953125 20.703125l0.09375 0l6.78125 -20.703125l4.265625 0l-9.078125 24.828125l-4.359375 0l-9.203125 -24.828125l4.546875 0zm32.15625 -0.5625q5.34375 0 8.296875 3.84375q2.953125 3.84375 2.953125 9.875l0 0.484375l-18.59375 0l0 0.3125q0 3.53125 2.0625 5.6875q2.0625 2.15625 5.671875 2.15625q2.71875 0 4.328125 -1.265625q1.609375 -1.265625 2.09375 -3.578125l4.03125 0q-0.8125 4.125 -3.609375 6.296875q-2.78125 2.171875 -6.984375 2.171875q-3.90625 0 -6.625 -1.765625q-2.703125 -1.78125 -4.0 -4.9375q-1.28125 -3.15625 -1.28125 -6.453125q0 -5.484375 3.296875 -9.15625q3.3125 -3.671875 8.359375 -3.671875zm-7.34375 10.59375l14.25 0q-0.1875 -3.015625 -2.1875 -5.0q-2.0 -2.0 -5.0 -2.0q-2.8125 0 -4.8125 1.90625q-1.984375 1.890625 -2.25 5.09375zm28.484375 -17.453125l0 7.421875l4.9375 0l0 3.609375l-4.9375 0l0 15.546875q0 1.84375 1.21875 1.953125q1.234375 0.109375 2.578125 0.109375l1.140625 0l0 3.609375l-3.375 0q-3.34375 0 -4.5 -1.1875q-1.140625 -1.203125 -1.140625 -4.015625l0 -16.015625l-4.25 0l0 -3.609375l4.25 0l0 -7.421875l4.078125 0zm13.7578125 -2.015625l0 4.984375l-4.078125 0l0 -4.984375l4.078125 0zm0 9.4375l0 24.828125l-4.078125 0l0 -24.828125l4.078125 0zm16.710938 -0.5625q4.546875 0 7.375 2.15625q2.84375 2.15625 3.328125 6.375l-4.21875 0q-0.484375 -2.40625 -2.09375 -3.671875q-1.609375 -1.265625 -4.046875 -1.265625q-3.796875 0 -5.765625 2.546875q-1.96875 2.53125 -1.96875 7.15625q0 4.125 1.9375 6.59375q1.953125 2.46875 5.3125 2.46875q2.96875 0 4.6875 -1.59375q1.734375 -1.609375 2.125 -4.453125l4.171875 0q-0.671875 4.640625 -3.484375 7.15625q-2.8125 2.515625 -7.453125 2.515625q-5.421875 0 -8.515625 -3.40625q-3.09375 -3.421875 -3.09375 -9.28125q0 -6.09375 3.125 -9.6875q3.140625 -3.609375 8.578125 -3.609375zm25.5625 0q5.0625 0 7.1875 1.8125q2.125 1.796875 2.125 4.828125q0 12.90625 0 14.3125q0 1.40625 1.28125 1.40625q0.28125 0 0.609375 -0.0625q0.328125 -0.078125 0.640625 -0.171875l0 3.171875q-0.5625 0.328125 -1.3125 0.5q-0.734375 0.1875 -1.59375 0.1875q-1.6875 0 -2.578125 -0.953125q-0.890625 -0.953125 -0.890625 -2.90625q-1.625 1.921875 -3.828125 2.890625q-2.203125 0.96875 -4.921875 0.96875q-3.84375 0 -6.03125 -1.8125q-2.171875 -1.828125 -2.171875 -5.15625q0 -3.359375 2.125 -5.3125q2.140625 -1.953125 10.046875 -2.9375q2.671875 -0.359375 3.609375 -1.03125q0.953125 -0.6875 0.953125 -2.046875q0 -2.0625 -1.328125 -3.078125q-1.3125 -1.015625 -4.203125 -1.015625q-3.015625 0 -4.53125 1.15625q-1.515625 1.140625 -1.625 3.546875l-4.078125 0q0.1875 -4.125 2.90625 -6.203125q2.71875 -2.09375 7.609375 -2.09375zm-7.171875 18.703125q0 1.734375 1.265625 2.703125q1.265625 0.953125 3.546875 0.953125q3.4375 0 5.5 -1.703125q2.0625 -1.71875 2.0625 -3.828125l0 -4.265625q-1.03125 0.734375 -2.671875 1.0q-1.640625 0.25 -4.359375 0.625q-2.71875 0.390625 -4.03125 1.46875q-1.3125 1.078125 -1.3125 3.046875zm41.632812 -27.578125l18.046875 27.796875l0.09375 0l0 -27.796875l4.3125 0l0 34.265625l-5.0 0l-17.90625 -27.515625l-0.09375 0l0 27.515625l-4.3125 0l0 -34.265625l4.859375 0zm39.492188 8.875q5.34375 0 8.296875 3.84375q2.953125 3.84375 2.953125 9.875l0 0.484375l-18.59375 0l0 0.3125q0 3.53125 2.0625 5.6875q2.0625 2.15625 5.671875 2.15625q2.71875 0 4.328125 -1.265625q1.609375 -1.265625 2.09375 -3.578125l4.03125 0q-0.8125 4.125 -3.609375 6.296875q-2.78125 2.171875 -6.984375 2.171875q-3.90625 0 -6.625 -1.765625q-2.703125 -1.78125 -4.0 -4.9375q-1.28125 -3.15625 -1.28125 -6.453125q0 -5.484375 3.296875 -9.15625q3.3125 -3.671875 8.359375 -3.671875zm-7.34375 10.59375l14.25 0q-0.1875 -3.015625 -2.1875 -5.0q-2.0 -2.0 -5.0 -2.0q-2.8125 0 -4.8125 1.90625q-1.984375 1.890625 -2.25 5.09375zm26.890686 -10.03125l0 16.921875q0 2.109375 1.34375 3.5q1.34375 1.375 3.71875 1.375q3.515625 0 5.421875 -2.140625q1.90625 -2.140625 1.90625 -5.46875l0 -14.1875l4.078125 0l0 24.828125l-3.84375 0l0 -3.9375l-0.09375 0q-1.359375 2.359375 -3.40625 3.453125q-2.03125 1.078125 -4.671875 1.078125q-4.34375 0 -6.437561 -2.234375q-2.09375 -2.25 -2.09375 -6.640625l0 -16.546875l4.078186 0zm32.929688 -0.5625q5.34375 0 8.296875 3.84375q2.953125 3.84375 2.953125 9.875l0 0.484375l-18.59375 0l0 0.3125q0 3.53125 2.0625 5.6875q2.0625 2.15625 5.671875 2.15625q2.71875 0 4.328125 -1.265625q1.609375 -1.265625 2.09375 -3.578125l4.03125 0q-0.8125 4.125 -3.609375 6.296875q-2.78125 2.171875 -6.984375 2.171875q-3.90625 0 -6.625 -1.765625q-2.703125 -1.78125 -4.0 -4.9375q-1.28125 -3.15625 -1.28125 -6.453125q0 -5.484375 3.296875 -9.15625q3.3125 -3.671875 8.359375 -3.671875zm-7.34375 10.59375l14.25 0q-0.1875 -3.015625 -2.1875 -5.0q-2.0 -2.0 -5.0 -2.0q-2.8125 0 -4.8125 1.90625q-1.984375 1.890625 -2.25 5.09375zm51.445312 -19.46875q6.359375 0 8.625 2.5625q2.28125 2.5625 2.28125 5.828125q0 2.71875 -1.34375 4.71875q-1.328125 1.984375 -3.75 2.96875l0 0.09375q3.171875 0.671875 4.859375 2.875q1.6875 2.203125 1.6875 5.375q0 4.1875 -2.9375 7.015625q-2.921875 2.828125 -7.3125 2.828125l-16.734375 0l0 -34.265625l14.625 0zm-0.71875 14.71875q3.421875 0 5.25 -1.28125q1.828125 -1.28125 1.828125 -4.1875q0 -2.71875 -1.53125 -4.0625q-1.515625 -1.34375 -5.5 -1.34375l-9.40625 0l0 10.875l9.359375 0zm2.25 15.703125q2.78125 0 4.515625 -1.65625q1.734375 -1.65625 1.734375 -4.484375q0 -2.890625 -1.96875 -4.296875q-1.96875 -1.421875 -5.640625 -1.421875l-10.25 0l0 11.859375l11.609375 0zm26.757812 -21.546875q5.625 0 8.828125 3.640625q3.21875 3.625 3.21875 9.375q0 5.78125 -3.28125 9.375q-3.28125 3.59375 -8.765625 3.59375q-5.390625 0 -8.71875 -3.53125q-3.328125 -3.53125 -3.328125 -9.4375q0 -5.90625 3.25 -9.453125q3.265625 -3.5625 8.796875 -3.5625zm-7.734375 13.015625q0 4.265625 2.171875 6.8125q2.1875 2.53125 5.5625 2.53125q3.359375 0 5.546875 -2.546875q2.1875 -2.5625 2.1875 -6.796875q0 -4.25 -2.1875 -6.828125q-2.171875 -2.59375 -5.59375 -2.59375q-3.28125 0 -5.484375 2.546875q-2.203125 2.53125 -2.203125 6.875zm28.90625 -21.890625l0 34.265625l-4.078125 0l0 -34.265625l4.078125 0zm28.523438 0l0 34.265625l-4.078125 0l0 -3.359375l-0.09375 0q-0.96875 1.921875 -3.0625 2.9375q-2.09375 1.015625 -4.859375 1.015625q-5.203125 0 -8.3125 -3.609375q-3.109375 -3.625 -3.109375 -9.453125q0 -5.75 3.015625 -9.328125q3.015625 -3.59375 8.28125 -3.59375q2.4375 0 4.625 0.984375q2.203125 0.984375 3.421875 2.890625l0.09375 0l0 -12.75l4.078125 0zm-19.203125 22.046875q0 4.015625 2.078125 6.609375q2.078125 2.578125 5.609375 2.578125q3.609375 0 5.59375 -2.578125q1.984375 -2.59375 1.984375 -6.765625q0 -4.25 -2.046875 -6.828125q-2.03125 -2.59375 -5.828125 -2.59375q-3.515625 0 -5.453125 2.5625q-1.9375 2.5625 -1.9375 7.015625z" fill-rule="nonzero"/></g></svg>